<mxfile host="app.diagrams.net" modified="2023-06-19T18:04:03.674Z" agent="Mozilla/5.0 (Windows NT 10.0; Win64; x64) AppleWebKit/537.36 (KHTML, like Gecko) Chrome/114.0.0.0 Safari/537.36" etag="20y8zsTspblZzwE2kfT8" version="21.5.0" type="device">
  <diagram name="Page-1" id="U4Z_65g4tNVLW_EbMOhb">
    <mxGraphModel dx="880" dy="452" grid="1" gridSize="10" guides="1" tooltips="1" connect="1" arrows="1" fold="1" page="1" pageScale="1" pageWidth="850" pageHeight="1100" math="0" shadow="0">
      <root>
        <mxCell id="0" />
        <mxCell id="1" parent="0" />
        <mxCell id="Hr3ALRRspqkIzwys9Mu0-3" value="" style="edgeStyle=orthogonalEdgeStyle;rounded=0;orthogonalLoop=1;jettySize=auto;html=1;fontStyle=1" edge="1" parent="1" source="Hr3ALRRspqkIzwys9Mu0-1" target="Hr3ALRRspqkIzwys9Mu0-2">
          <mxGeometry relative="1" as="geometry" />
        </mxCell>
        <mxCell id="Hr3ALRRspqkIzwys9Mu0-1" value="Server Telegram" style="image;aspect=fixed;perimeter=ellipsePerimeter;html=1;align=center;shadow=0;dashed=0;spacingTop=3;image=img/lib/active_directory/generic_server.svg;fontStyle=1" vertex="1" parent="1">
          <mxGeometry x="410" y="70" width="28.000000000000004" height="50" as="geometry" />
        </mxCell>
        <mxCell id="Hr3ALRRspqkIzwys9Mu0-2" value="INTERNET" style="image;aspect=fixed;perimeter=ellipsePerimeter;html=1;align=center;shadow=0;dashed=0;spacingTop=3;image=img/lib/active_directory/internet_globe.svg;fontStyle=1" vertex="1" parent="1">
          <mxGeometry x="400" y="200" width="50" height="50" as="geometry" />
        </mxCell>
        <mxCell id="Hr3ALRRspqkIzwys9Mu0-6" value="" style="edgeStyle=orthogonalEdgeStyle;rounded=0;orthogonalLoop=1;jettySize=auto;html=1;fontStyle=1" edge="1" parent="1" source="Hr3ALRRspqkIzwys9Mu0-5" target="Hr3ALRRspqkIzwys9Mu0-2">
          <mxGeometry relative="1" as="geometry" />
        </mxCell>
        <mxCell id="Hr3ALRRspqkIzwys9Mu0-5" value="" style="shape=image;html=1;verticalAlign=top;verticalLabelPosition=bottom;labelBackgroundColor=#ffffff;imageAspect=0;aspect=fixed;image=https://cdn4.iconfinder.com/data/icons/socialcones/508/Telegram-128.png;fontStyle=1" vertex="1" parent="1">
          <mxGeometry x="550" y="201" width="48" height="48" as="geometry" />
        </mxCell>
        <mxCell id="Hr3ALRRspqkIzwys9Mu0-10" value="" style="edgeStyle=orthogonalEdgeStyle;rounded=0;orthogonalLoop=1;jettySize=auto;html=1;fontStyle=1" edge="1" parent="1" source="Hr3ALRRspqkIzwys9Mu0-9" target="Hr3ALRRspqkIzwys9Mu0-2">
          <mxGeometry relative="1" as="geometry" />
        </mxCell>
        <mxCell id="Hr3ALRRspqkIzwys9Mu0-9" value="Engine IDS" style="image;aspect=fixed;perimeter=ellipsePerimeter;html=1;align=center;shadow=0;dashed=0;spacingTop=3;image=img/lib/active_directory/web_server.svg;fontStyle=1" vertex="1" parent="1">
          <mxGeometry x="250" y="200" width="40" height="50" as="geometry" />
        </mxCell>
        <mxCell id="Hr3ALRRspqkIzwys9Mu0-11" value="User" style="text;strokeColor=none;align=center;fillColor=none;html=1;verticalAlign=middle;whiteSpace=wrap;rounded=0;fontStyle=1" vertex="1" parent="1">
          <mxGeometry x="544" y="249" width="60" height="30" as="geometry" />
        </mxCell>
        <mxCell id="Hr3ALRRspqkIzwys9Mu0-13" value="" style="edgeStyle=orthogonalEdgeStyle;rounded=0;orthogonalLoop=1;jettySize=auto;html=1;fontStyle=1" edge="1" parent="1" source="Hr3ALRRspqkIzwys9Mu0-12" target="Hr3ALRRspqkIzwys9Mu0-2">
          <mxGeometry relative="1" as="geometry" />
        </mxCell>
        <mxCell id="Hr3ALRRspqkIzwys9Mu0-12" value="App Interfaces" style="sketch=0;html=1;dashed=0;whitespace=wrap;fillColor=#2875E2;strokeColor=#ffffff;points=[[0.005,0.63,0],[0.1,0.2,0],[0.9,0.2,0],[0.5,0,0],[0.995,0.63,0],[0.72,0.99,0],[0.5,1,0],[0.28,0.99,0]];verticalLabelPosition=bottom;align=center;verticalAlign=top;shape=mxgraph.kubernetes.icon;prIcon=api;fontStyle=1" vertex="1" parent="1">
          <mxGeometry x="400" y="320" width="50" height="48" as="geometry" />
        </mxCell>
      </root>
    </mxGraphModel>
  </diagram>
</mxfile>
